<svg xmlns="http://www.w3.org/2000/svg" viewBox="0 0 72 9.36"><defs><style>.cls-1{fill:#0a3670;}</style></defs><g id="Layer_2" data-name="Layer 2"><g id="Layer_1-2" data-name="Layer 1"><path class="cls-1" d="M16.75,7.05h-1.2V6.17a2.32,2.32,0,0,1-2,.93,3.3,3.3,0,0,1-3.28-3.43A3.42,3.42,0,0,1,13.69.23a3,3,0,0,1,3,2.29H15.27a1.44,1.44,0,0,0-.55-.74,1.94,1.94,0,0,0-1.08-.31,2.15,2.15,0,0,0-2.14,2.2,2.12,2.12,0,0,0,2.15,2.2,1.78,1.78,0,0,0,1.88-1.39H13.12V3.34h3.63Z"/><path class="cls-1" d="M20.43,2.19V3.42a3.81,3.81,0,0,0-.67-.06c-.71,0-1.17.38-1.17,1.28V7.05H17.35V2.21h1.24V2.8a1.59,1.59,0,0,1,1.3-.65,4.64,4.64,0,0,1,.54,0"/><path class="cls-1" d="M22.83,5.87A1.2,1.2,0,0,0,24,4.63a1.21,1.21,0,0,0-1.16-1.24h0a1.19,1.19,0,0,0-1.16,1.24,1.2,1.2,0,0,0,1.16,1.24ZM20.42,4.63a2.44,2.44,0,0,1,2.4-2.48h0a2.44,2.44,0,0,1,2.4,2.48,2.43,2.43,0,0,1-2.4,2.47h0a2.43,2.43,0,0,1-2.4-2.47"/><rect class="cls-1" x="27.5" y="0.29" width="1.24" height="6.76"/><path class="cls-1" d="M33.7,4.27V7.05H32.46V4.35a.92.92,0,1,0-1.84,0v2.7H29.38V2.21h1.24v.61a2,2,0,0,1,1.45-.67c.91,0,1.63.67,1.63,2.12"/><path class="cls-1" d="M35.81,3.28V5.45c0,.4.31.52.64.52a1.15,1.15,0,0,0,.45-.1V7a2.59,2.59,0,0,1-.81.14,1.5,1.5,0,0,1-1.52-1.63V3.28h-.7V2.21h.7V.83h1.24V2.21H36.9V3.28Z"/><path class="cls-1" d="M38.36,4.09h2.12a1,1,0,0,0-1-.84,1,1,0,0,0-1.08.84M39.48,6a.89.89,0,0,0,.89-.55h1.24A2.06,2.06,0,0,1,39.48,7.1a2.38,2.38,0,0,1-2.43-2.47,2.41,2.41,0,0,1,2.39-2.48A2.36,2.36,0,0,1,41.7,4.61a3.36,3.36,0,0,1,0,.36H38.32a1.09,1.09,0,0,0,1.16,1"/><rect class="cls-1" x="42.1" y="0.29" width="1.24" height="6.76"/><rect class="cls-1" x="43.99" y="0.29" width="1.24" height="6.76"/><path class="cls-1" d="M47.18,7.05H45.94V2.21h1.24ZM45.73.83A.84.84,0,0,1,46.57,0a.83.83,0,0,1,.82.83.82.82,0,0,1-.82.83.83.83,0,0,1-.84-.83"/><path class="cls-1" d="M51.22,4.63A1.17,1.17,0,0,0,50.1,3.39,1.18,1.18,0,0,0,49,4.63,1.19,1.19,0,0,0,50.1,5.87a1.17,1.17,0,0,0,1.12-1.24m1.23,2.25A2.41,2.41,0,0,1,50,9.36a2.33,2.33,0,0,1-2.43-2h1.28A1.13,1.13,0,0,0,50,8.19a1.23,1.23,0,0,0,1.21-1.31V6.42a1.92,1.92,0,0,1-1.44.68,2.3,2.3,0,0,1-2.07-2.47,2.3,2.3,0,0,1,2.07-2.48,1.92,1.92,0,0,1,1.44.68V2.21h1.23Z"/><path class="cls-1" d="M54.19,4.09h2.12a1,1,0,0,0-1-.84,1.06,1.06,0,0,0-1.09.84M55.31,6a.92.92,0,0,0,.9-.55h1.23A2.06,2.06,0,0,1,55.31,7.1a2.39,2.39,0,0,1-2.43-2.47,2.41,2.41,0,0,1,2.4-2.48,2.36,2.36,0,0,1,2.25,2.46,3.36,3.36,0,0,1,0,.36H54.15a1.09,1.09,0,0,0,1.16,1"/><path class="cls-1" d="M62.27,4.27V7.05H61V4.35a.92.92,0,1,0-1.84,0v2.7H58V2.21h1.24v.61a2,2,0,0,1,1.45-.67c.91,0,1.63.67,1.63,2.12"/><path class="cls-1" d="M65.67,3.53A1.06,1.06,0,0,0,65,3.32a1.2,1.2,0,0,0-1.16,1.31A1.23,1.23,0,0,0,65,5.93a1.09,1.09,0,0,0,.67-.21A.9.9,0,0,0,66,5.25h1.23A2.27,2.27,0,0,1,65,7.1a2.43,2.43,0,0,1-2.4-2.47A2.44,2.44,0,0,1,65,2.15,2.16,2.16,0,0,1,67.27,4H66a.91.91,0,0,0-.34-.47"/><path class="cls-1" d="M68.66,4.09h2.12a1,1,0,0,0-1-.84,1.06,1.06,0,0,0-1.09.84M69.79,6a.91.91,0,0,0,.89-.55h1.24A2.08,2.08,0,0,1,69.79,7.1a2.39,2.39,0,0,1-2.44-2.47,2.42,2.42,0,0,1,2.4-2.48A2.36,2.36,0,0,1,72,4.61,3.36,3.36,0,0,1,72,5H68.62a1.1,1.1,0,0,0,1.17,1"/><path class="cls-1" d="M0,3.93H2.49A2.76,2.76,0,0,1,0,5.77V7a4,4,0,0,0,2.65-1.1V7.05H3.9V2.68H0ZM8.41.85V2.1A1.84,1.84,0,0,0,6.57,3.94H5.37V7.05H4.12V.83H5.37V3.4a3.08,3.08,0,0,1,3-2.55"/></g></g></svg>