<svg width="201" height="27" viewBox="0 0 201 27" fill="none" xmlns="http://www.w3.org/2000/svg">
<path d="M46.5543 20.1963H43.2246V17.7566C42.1834 19.1845 40.4943 20.3573 37.6573 20.3573C32.4288 20.3573 28.5543 16.1528 28.5543 10.8573C28.5543 5.22492 33.1573 1.3573 38.0483 1.3573C42.3919 1.3573 45.8507 4.41994 46.3458 7.66463H42.444C42.1634 6.8427 41.6252 6.13274 40.9088 5.63979C40.1543 5.12089 39.1404 4.78404 37.9179 4.78404C35.1082 4.78404 31.987 6.98968 31.987 10.8523C31.987 14.4859 34.6925 16.9207 37.944 16.9207C42.2355 16.9207 43.1725 13.4171 43.1725 13.0815L36.487 13.1063V9.94334H46.5543V20.1963Z" fill="#0B3571"/>
<path d="M57.221 6.79459V10.2249C56.6014 10.1182 55.9738 10.0643 55.3449 10.0638C53.3365 10.0638 52.0417 11.1381 52.0417 13.6253V20.3573H48.5543V6.84706H52.0417V8.49727C52.467 7.93055 53.0215 7.47149 53.66 7.15757C54.2985 6.84364 55.0029 6.68374 55.7156 6.6909C56.219 6.69771 56.7215 6.73232 57.221 6.79459Z" fill="#0B3571"/>
<path d="M63.5828 16.9413C65.379 16.9413 66.7839 15.4148 66.7839 13.5252C66.7839 11.6616 65.3529 10.108 63.5828 10.108H63.5567C61.7332 10.108 60.3271 11.6357 60.3271 13.5252C60.3271 15.4148 61.732 16.9413 63.5567 16.9413H63.5828ZM56.8876 13.524C56.8876 9.74486 59.8563 6.69067 63.553 6.69067H63.5828C67.2795 6.69067 70.2209 9.7708 70.2209 13.524C70.2209 17.2772 67.2757 20.3573 63.5828 20.3573H63.5567C59.8601 20.3573 56.8913 17.3032 56.8913 13.524" fill="#0B3571"/>
<path d="M79.8877 1.3573H76.5543V20.024H79.8877V1.3573Z" fill="#0B3571"/>
<path d="M93.8876 12.6071V20.3523H90.4485V12.8432C90.4485 11.3441 89.3283 10.1461 87.8932 10.1461C86.4829 10.1461 85.3353 11.3503 85.3353 12.8432V20.3573H81.8876V6.84683H85.3304V8.57577C86.3485 7.42273 87.8347 6.69067 89.3482 6.69067C91.8786 6.69067 93.8876 8.57577 93.8876 12.6071Z" fill="#0B3571"/>
<path d="M99.5607 9.81251V15.7963C99.5607 16.8853 100.412 17.2215 101.316 17.2215C101.746 17.2289 102.171 17.1313 102.554 16.9372V19.9693C101.858 20.1757 101.161 20.3574 100.339 20.3574C97.8103 20.3574 96.1535 18.4662 96.1535 15.8495V9.81251H94.2209V6.83236H96.156V3.02405H99.5607V6.83236H102.554V9.81251H99.5607Z" fill="#0B3571"/>
<path d="M106.872 12.0482H112.81C112.434 10.702 111.52 9.71893 109.918 9.71893C108.238 9.71893 107.266 10.6761 106.872 12.0482ZM110.024 17.3291C111.416 17.3291 112.279 16.5263 112.518 15.8273H115.984C115.859 16.9388 114.355 20.3573 110.024 20.3573C106.11 20.3573 103.221 17.4588 103.221 13.524C103.221 9.66706 106.189 6.69067 109.918 6.69067C113.463 6.69067 116.221 9.74486 116.221 13.4721C116.221 13.8599 116.195 14.223 116.168 14.4811H106.771C107.008 16.1126 108.005 17.3291 110.029 17.3291" fill="#0B3571"/>
<path d="M120.554 1.3573H117.221V20.024H120.554V1.3573Z" fill="#0B3571"/>
<path d="M125.888 1.3573H122.554V20.024H125.888V1.3573Z" fill="#0B3571"/>
<path d="M131.281 20.3573H127.801V6.84428H131.281V20.3573ZM127.221 2.98965C127.225 2.53275 127.364 2.08713 127.622 1.70881C127.88 1.33048 128.245 1.03632 128.671 0.86329C129.096 0.690262 129.564 0.646087 130.015 0.736315C130.466 0.826544 130.88 1.04715 131.205 1.37041C131.53 1.69367 131.752 2.10517 131.842 2.55319C131.933 3.0012 131.888 3.46575 131.713 3.88845C131.538 4.31116 131.242 4.67315 130.861 4.92896C130.479 5.18476 130.031 5.32295 129.571 5.32617C129.262 5.3285 128.956 5.26978 128.67 5.15343C128.384 5.03709 128.124 4.86544 127.906 4.64847C127.687 4.4315 127.514 4.17355 127.397 3.88963C127.28 3.6057 127.221 3.30148 127.223 2.99465" fill="#0B3571"/>
<path d="M142.438 13.5652C142.438 11.6643 141.105 10.1273 139.329 10.1273C137.526 10.1273 136.141 11.6643 136.141 13.5652C136.141 15.4662 137.526 17.0032 139.329 17.0032C141.105 17.0032 142.438 15.4675 142.438 13.5665V13.5652ZM145.888 19.8161C145.888 23.7746 142.935 26.6907 138.989 26.6907C134.913 26.6907 132.382 23.6963 132.221 21.1965H135.8C135.959 22.3942 137.369 23.4615 139.094 23.4615C141.054 23.4615 142.438 21.8736 142.438 19.8161V18.5388C141.419 19.7105 140.008 20.4398 138.441 20.4398C135.279 20.4398 132.692 17.3672 132.692 13.5652C132.692 9.7633 135.279 6.69067 138.441 6.69067C140.008 6.69067 141.419 7.41876 142.438 8.59165V6.85219H145.888V19.8161Z" fill="#0B3571"/>
<path d="M150.871 12.0482H156.806C156.438 10.702 155.52 9.71893 153.917 9.71893C152.237 9.71893 151.264 10.6761 150.871 12.0482ZM154.022 17.3291C155.414 17.3291 156.278 16.5263 156.517 15.8273H159.984C159.859 16.9388 158.355 20.3573 154.022 20.3573C150.109 20.3573 147.221 17.4588 147.221 13.524C147.221 9.66706 150.188 6.69067 153.917 6.69067C157.463 6.69067 160.221 9.74486 160.221 13.4721C160.221 13.8599 160.195 14.223 160.168 14.4811H150.771C151.008 16.1126 152.005 17.3291 154.029 17.3291" fill="#0B3571"/>
<path d="M173.215 12.6071V20.3523H169.77V12.8432C169.77 11.3441 168.651 10.1461 167.215 10.1461C165.808 10.1461 164.661 11.3503 164.661 12.8432V20.3573H161.221V6.84683H164.671V8.57577C165.688 7.42273 167.173 6.69067 168.685 6.69067C171.214 6.69067 173.221 8.57577 173.221 12.6071" fill="#0B3571"/>
<path d="M182.747 10.4958C182.232 10.1145 181.603 9.91365 180.958 9.92518C178.905 9.92518 177.694 11.6344 177.694 13.524C177.694 15.4136 179.01 17.1216 180.958 17.1216C181.631 17.1365 182.29 16.9266 182.827 16.5263C183.354 16.1126 183.643 15.5951 183.722 15.232H187.168C187.064 17.1735 184.668 20.3573 180.958 20.3573C177.222 20.3573 174.221 17.3032 174.221 13.524C174.221 9.74486 177.222 6.69067 180.958 6.69067C185.038 6.69067 187.064 9.71893 187.221 11.79H183.695C183.531 11.2684 183.198 10.8139 182.747 10.4958Z" fill="#0B3571"/>
<path d="M190.866 12.0482H196.8C196.433 10.702 195.513 9.71893 193.918 9.71893C192.238 9.71893 191.266 10.6761 190.872 12.0482H190.866ZM194.024 17.3291C195.416 17.3291 196.279 16.5263 196.518 15.8273H199.984C199.859 16.9388 198.355 20.3573 194.024 20.3573C190.11 20.3573 187.221 17.4588 187.221 13.524C187.221 9.66706 190.189 6.69067 193.918 6.69067C197.463 6.69067 200.221 9.74486 200.221 13.4721C200.221 13.8599 200.195 14.223 200.168 14.4811H190.771C191.006 16.1126 192.005 17.3291 194.029 17.3291" fill="#0B3571"/>
<path d="M0.220947 11.672H7.11517C6.60745 13.1223 5.67923 14.3862 4.45033 15.3006C3.22143 16.2151 1.74825 16.7381 0.220947 16.8021V20.2912C2.95879 20.2166 5.57183 19.1233 7.55467 17.2229V20.3574H11.0223V8.18034H0.220947V11.672ZM23.5468 3.05527V6.55191C22.194 6.55323 20.897 7.09444 19.9406 8.05674C18.9841 9.01903 18.4464 10.3238 18.4454 11.6845H15.1119V20.3574H11.643V3.02405H15.1193V10.1922C15.4691 8.19646 16.506 6.38822 18.0482 5.08426C19.5904 3.7803 21.5396 3.06379 23.5543 3.06026" fill="#0B3571"/>
</svg>
